<mxfile host="app.diagrams.net" modified="2021-12-12T06:53:01.319Z" agent="5.0 (Macintosh; Intel Mac OS X 10_14_6) AppleWebKit/537.36 (KHTML, like Gecko) Chrome/95.0.4638.69 Safari/537.36" etag="GSIOcu2D2LEyb8mSReCL" version="15.9.4" type="github">
  <diagram id="C5RBs43oDa-KdzZeNtuy" name="Page-1">
    <mxGraphModel dx="2013" dy="649" grid="0" gridSize="10" guides="1" tooltips="1" connect="1" arrows="1" fold="1" page="1" pageScale="1" pageWidth="827" pageHeight="1169" math="0" shadow="0">
      <root>
        <mxCell id="WIyWlLk6GJQsqaUBKTNV-0" />
        <mxCell id="WIyWlLk6GJQsqaUBKTNV-1" parent="WIyWlLk6GJQsqaUBKTNV-0" />
        <mxCell id="0PJWaufqRciaaDIaoVrb-1" value="" style="edgeStyle=orthogonalEdgeStyle;rounded=0;orthogonalLoop=1;jettySize=auto;html=1;entryX=0.07;entryY=0.4;entryDx=0;entryDy=0;entryPerimeter=0;" edge="1" parent="WIyWlLk6GJQsqaUBKTNV-1" source="WIyWlLk6GJQsqaUBKTNV-3" target="0PJWaufqRciaaDIaoVrb-0">
          <mxGeometry relative="1" as="geometry" />
        </mxCell>
        <mxCell id="0PJWaufqRciaaDIaoVrb-27" value="" style="edgeStyle=orthogonalEdgeStyle;rounded=0;orthogonalLoop=1;jettySize=auto;html=1;entryX=0.5;entryY=0;entryDx=0;entryDy=0;" edge="1" parent="WIyWlLk6GJQsqaUBKTNV-1" source="WIyWlLk6GJQsqaUBKTNV-3" target="0PJWaufqRciaaDIaoVrb-3">
          <mxGeometry relative="1" as="geometry">
            <Array as="points" />
          </mxGeometry>
        </mxCell>
        <mxCell id="WIyWlLk6GJQsqaUBKTNV-3" value="&lt;pre style=&quot;margin-top: 0px ; margin-bottom: 0px ; font-size: 0.9em ; overflow: auto ; border-radius: 4px ; color: rgb(18 , 18 , 18)&quot;&gt;&lt;code class=&quot;language-text&quot; style=&quot;margin: 0px ; padding: 0px ; border-radius: 0px ; font-family: &amp;#34;menlo&amp;#34; , &amp;#34;monaco&amp;#34; , &amp;#34;consolas&amp;#34; , &amp;#34;andale mono&amp;#34; , &amp;#34;lucida console&amp;#34; , &amp;#34;courier new&amp;#34; , monospace ; font-size: inherit ; background-color: rgb(248 , 206 , 204)&quot;&gt;start_kernel&lt;/code&gt;&lt;/pre&gt;" style="rounded=1;whiteSpace=wrap;html=1;fontSize=12;glass=0;strokeWidth=1;shadow=0;fillColor=#f8cecc;strokeColor=#b85450;" parent="WIyWlLk6GJQsqaUBKTNV-1" vertex="1">
          <mxGeometry x="336" y="61" width="120" height="40" as="geometry" />
        </mxCell>
        <mxCell id="0PJWaufqRciaaDIaoVrb-0" value="这里有很多问题，初始化太大内容了" style="ellipse;shape=cloud;whiteSpace=wrap;html=1;fillColor=#f8cecc;strokeColor=#b85450;rounded=1;glass=0;strokeWidth=1;shadow=0;" vertex="1" parent="WIyWlLk6GJQsqaUBKTNV-1">
          <mxGeometry x="16" y="48" width="276" height="81" as="geometry" />
        </mxCell>
        <mxCell id="0PJWaufqRciaaDIaoVrb-8" value="" style="edgeStyle=orthogonalEdgeStyle;rounded=0;orthogonalLoop=1;jettySize=auto;html=1;" edge="1" parent="WIyWlLk6GJQsqaUBKTNV-1" source="0PJWaufqRciaaDIaoVrb-3" target="0PJWaufqRciaaDIaoVrb-7">
          <mxGeometry relative="1" as="geometry" />
        </mxCell>
        <mxCell id="0PJWaufqRciaaDIaoVrb-3" value="&lt;pre style=&quot;margin-top: 0px ; margin-bottom: 0px ; overflow: auto ; border-radius: 4px&quot;&gt;&lt;font color=&quot;#121212&quot; face=&quot;menlo, monaco, consolas, andale mono, lucida console, courier new, monospace&quot;&gt;&lt;span style=&quot;font-size: 10.8px ; background-color: rgb(248 , 206 , 204)&quot;&gt;arch_call_rest_init&lt;/span&gt;&lt;/font&gt;&lt;font color=&quot;#121212&quot; style=&quot;background-color: rgb(246 , 246 , 246)&quot;&gt;&lt;span style=&quot;font-size: 0.9em&quot;&gt;&lt;br&gt;&lt;/span&gt;&lt;/font&gt;&lt;/pre&gt;" style="rounded=1;whiteSpace=wrap;html=1;fontSize=12;glass=0;strokeWidth=1;shadow=0;fillColor=#f8cecc;strokeColor=#b85450;" vertex="1" parent="WIyWlLk6GJQsqaUBKTNV-1">
          <mxGeometry x="277" y="141" width="239" height="40" as="geometry" />
        </mxCell>
        <mxCell id="0PJWaufqRciaaDIaoVrb-83" value="" style="edgeStyle=orthogonalEdgeStyle;rounded=0;orthogonalLoop=1;jettySize=auto;html=1;entryX=0.5;entryY=0;entryDx=0;entryDy=0;" edge="1" parent="WIyWlLk6GJQsqaUBKTNV-1" source="0PJWaufqRciaaDIaoVrb-7" target="0PJWaufqRciaaDIaoVrb-31">
          <mxGeometry relative="1" as="geometry">
            <mxPoint x="396.5" y="338" as="targetPoint" />
          </mxGeometry>
        </mxCell>
        <mxCell id="0PJWaufqRciaaDIaoVrb-85" value="" style="edgeStyle=orthogonalEdgeStyle;rounded=0;orthogonalLoop=1;jettySize=auto;html=1;entryX=0.904;entryY=0.5;entryDx=0;entryDy=0;entryPerimeter=0;" edge="1" parent="WIyWlLk6GJQsqaUBKTNV-1" source="0PJWaufqRciaaDIaoVrb-7" target="0PJWaufqRciaaDIaoVrb-22">
          <mxGeometry relative="1" as="geometry" />
        </mxCell>
        <mxCell id="0PJWaufqRciaaDIaoVrb-7" value="&lt;pre style=&quot;margin-top: 0px ; margin-bottom: 0px ; overflow: auto ; border-radius: 4px&quot;&gt;&lt;font color=&quot;#121212&quot;&gt;&lt;font face=&quot;menlo, monaco, consolas, andale mono, lucida console, courier new, monospace&quot;&gt;&lt;span style=&quot;font-size: 10.8px ; background-color: rgb(248 , 206 , 204)&quot;&gt;rest_init&lt;/span&gt;&lt;/font&gt;&lt;span style=&quot;background-color: rgb(246 , 246 , 246) ; font-size: 0.9em&quot;&gt;&lt;br&gt;&lt;/span&gt;&lt;/font&gt;&lt;/pre&gt;" style="rounded=1;whiteSpace=wrap;html=1;fontSize=12;glass=0;strokeWidth=1;shadow=0;fillColor=#f8cecc;strokeColor=#b85450;" vertex="1" parent="WIyWlLk6GJQsqaUBKTNV-1">
          <mxGeometry x="319" y="218" width="155" height="40" as="geometry" />
        </mxCell>
        <mxCell id="0PJWaufqRciaaDIaoVrb-20" value="" style="edgeStyle=orthogonalEdgeStyle;rounded=0;orthogonalLoop=1;jettySize=auto;html=1;" edge="1" parent="WIyWlLk6GJQsqaUBKTNV-1" source="0PJWaufqRciaaDIaoVrb-9">
          <mxGeometry relative="1" as="geometry">
            <mxPoint x="117" y="434" as="targetPoint" />
          </mxGeometry>
        </mxCell>
        <mxCell id="0PJWaufqRciaaDIaoVrb-9" value="&lt;pre style=&quot;margin-top: 0px ; margin-bottom: 0px ; overflow: auto ; border-radius: 4px&quot;&gt;&lt;font color=&quot;#121212&quot;&gt;&lt;font face=&quot;menlo, monaco, consolas, andale mono, lucida console, courier new, monospace&quot;&gt;&lt;span style=&quot;font-size: 10.8px ; background-color: rgb(151 , 208 , 119)&quot;&gt;kernel_thread&lt;/span&gt;&lt;/font&gt;&lt;span style=&quot;background-color: rgb(246 , 246 , 246) ; font-size: 0.9em&quot;&gt;&lt;br&gt;&lt;/span&gt;&lt;/font&gt;&lt;/pre&gt;" style="rounded=1;whiteSpace=wrap;html=1;fontSize=12;glass=0;strokeWidth=1;shadow=0;fillColor=#97D077;strokeColor=#b85450;" vertex="1" parent="WIyWlLk6GJQsqaUBKTNV-1">
          <mxGeometry x="39" y="362" width="156" height="40" as="geometry" />
        </mxCell>
        <mxCell id="0PJWaufqRciaaDIaoVrb-22" value="&lt;span style=&quot;background-color: rgb(248 , 206 , 204)&quot;&gt;先创建&lt;span style=&quot;font-size: 10.8px ; font-family: &amp;#34;menlo&amp;#34; , &amp;#34;monaco&amp;#34; , &amp;#34;consolas&amp;#34; , &amp;#34;andale mono&amp;#34; , &amp;#34;lucida console&amp;#34; , &amp;#34;courier new&amp;#34; , monospace ; color: rgb(18 , 18 , 18)&quot;&gt;创建kernel_init，再创建kthreadadd&lt;/span&gt;&lt;/span&gt;" style="ellipse;shape=cloud;whiteSpace=wrap;html=1;fillColor=#f8cecc;strokeColor=#b85450;rounded=1;glass=0;strokeWidth=1;shadow=0;" vertex="1" parent="WIyWlLk6GJQsqaUBKTNV-1">
          <mxGeometry x="-9" y="192" width="314" height="84" as="geometry" />
        </mxCell>
        <mxCell id="0PJWaufqRciaaDIaoVrb-30" value="" style="edgeStyle=orthogonalEdgeStyle;rounded=0;orthogonalLoop=1;jettySize=auto;html=1;" edge="1" parent="WIyWlLk6GJQsqaUBKTNV-1" source="0PJWaufqRciaaDIaoVrb-28" target="0PJWaufqRciaaDIaoVrb-29">
          <mxGeometry relative="1" as="geometry" />
        </mxCell>
        <mxCell id="0PJWaufqRciaaDIaoVrb-28" value="&lt;pre style=&quot;margin-top: 0px ; margin-bottom: 0px ; overflow: auto ; border-radius: 4px&quot;&gt;&lt;font color=&quot;#121212&quot;&gt;&lt;font face=&quot;menlo, monaco, consolas, andale mono, lucida console, courier new, monospace&quot;&gt;&lt;span style=&quot;font-size: 10.8px ; background-color: rgb(151 , 208 , 119)&quot;&gt;_do_fork&lt;/span&gt;&lt;/font&gt;&lt;span style=&quot;background-color: rgb(246 , 246 , 246) ; font-size: 0.9em&quot;&gt;&lt;br&gt;&lt;/span&gt;&lt;/font&gt;&lt;/pre&gt;" style="rounded=1;whiteSpace=wrap;html=1;fontSize=12;glass=0;strokeWidth=1;shadow=0;fillColor=#97D077;strokeColor=#97D077;" vertex="1" parent="WIyWlLk6GJQsqaUBKTNV-1">
          <mxGeometry x="36" y="434" width="156" height="40" as="geometry" />
        </mxCell>
        <mxCell id="0PJWaufqRciaaDIaoVrb-29" value="&lt;pre style=&quot;margin-top: 0px ; margin-bottom: 0px ; overflow: auto ; border-radius: 4px&quot;&gt;&lt;font color=&quot;#121212&quot;&gt;&lt;font face=&quot;menlo, monaco, consolas, andale mono, lucida console, courier new, monospace&quot;&gt;&lt;span style=&quot;font-size: 10.8px ; background-color: rgb(255 , 102 , 102)&quot;&gt;copy_process&lt;/span&gt;&lt;/font&gt;&lt;span style=&quot;background-color: rgb(246 , 246 , 246) ; font-size: 0.9em&quot;&gt;&lt;br&gt;&lt;/span&gt;&lt;/font&gt;&lt;/pre&gt;" style="rounded=1;whiteSpace=wrap;html=1;fontSize=12;glass=0;strokeWidth=1;shadow=0;fillColor=#FF6666;strokeColor=#FF6666;" vertex="1" parent="WIyWlLk6GJQsqaUBKTNV-1">
          <mxGeometry x="36" y="511" width="156" height="40" as="geometry" />
        </mxCell>
        <mxCell id="0PJWaufqRciaaDIaoVrb-84" value="" style="edgeStyle=orthogonalEdgeStyle;rounded=0;orthogonalLoop=1;jettySize=auto;html=1;" edge="1" parent="WIyWlLk6GJQsqaUBKTNV-1" source="0PJWaufqRciaaDIaoVrb-31" target="0PJWaufqRciaaDIaoVrb-33">
          <mxGeometry relative="1" as="geometry" />
        </mxCell>
        <mxCell id="0PJWaufqRciaaDIaoVrb-31" value="&lt;pre style=&quot;margin-top: 0px ; margin-bottom: 0px ; overflow: auto ; border-radius: 4px&quot;&gt;&lt;font color=&quot;#121212&quot;&gt;&lt;font face=&quot;menlo, monaco, consolas, andale mono, lucida console, courier new, monospace&quot;&gt;&lt;span style=&quot;font-size: 10.8px ; background-color: rgb(248 , 206 , 204)&quot;&gt;kthreadadd的工作流程&lt;/span&gt;&lt;/font&gt;&lt;span style=&quot;background-color: rgb(246 , 246 , 246) ; font-size: 0.9em&quot;&gt;&lt;br&gt;&lt;/span&gt;&lt;/font&gt;&lt;/pre&gt;" style="rounded=1;whiteSpace=wrap;html=1;fontSize=12;glass=0;strokeWidth=1;shadow=0;fillColor=#f8cecc;strokeColor=#b85450;" vertex="1" parent="WIyWlLk6GJQsqaUBKTNV-1">
          <mxGeometry x="319" y="288" width="156" height="40" as="geometry" />
        </mxCell>
        <mxCell id="0PJWaufqRciaaDIaoVrb-38" value="" style="edgeStyle=orthogonalEdgeStyle;rounded=0;orthogonalLoop=1;jettySize=auto;html=1;" edge="1" parent="WIyWlLk6GJQsqaUBKTNV-1" source="0PJWaufqRciaaDIaoVrb-33" target="0PJWaufqRciaaDIaoVrb-37">
          <mxGeometry relative="1" as="geometry" />
        </mxCell>
        <mxCell id="0PJWaufqRciaaDIaoVrb-33" value="&lt;pre style=&quot;margin-top: 0px ; margin-bottom: 0px ; overflow: auto ; border-radius: 4px&quot;&gt;&lt;font color=&quot;#121212&quot;&gt;set_current_state(TASK_INTERRUPTIBLE)&lt;/font&gt;&lt;/pre&gt;" style="rounded=1;whiteSpace=wrap;html=1;fontSize=12;glass=0;strokeWidth=1;shadow=0;fillColor=#97D077;strokeColor=#b85450;" vertex="1" parent="WIyWlLk6GJQsqaUBKTNV-1">
          <mxGeometry x="234" y="359" width="310" height="40" as="geometry" />
        </mxCell>
        <mxCell id="0PJWaufqRciaaDIaoVrb-40" value="" style="edgeStyle=orthogonalEdgeStyle;rounded=0;orthogonalLoop=1;jettySize=auto;html=1;" edge="1" parent="WIyWlLk6GJQsqaUBKTNV-1" source="0PJWaufqRciaaDIaoVrb-37" target="0PJWaufqRciaaDIaoVrb-39">
          <mxGeometry relative="1" as="geometry" />
        </mxCell>
        <mxCell id="0PJWaufqRciaaDIaoVrb-41" value="否" style="edgeLabel;html=1;align=center;verticalAlign=middle;resizable=0;points=[];" vertex="1" connectable="0" parent="0PJWaufqRciaaDIaoVrb-40">
          <mxGeometry x="-0.3111" y="1" relative="1" as="geometry">
            <mxPoint as="offset" />
          </mxGeometry>
        </mxCell>
        <mxCell id="0PJWaufqRciaaDIaoVrb-47" value="" style="edgeStyle=orthogonalEdgeStyle;rounded=0;orthogonalLoop=1;jettySize=auto;html=1;" edge="1" parent="WIyWlLk6GJQsqaUBKTNV-1" source="0PJWaufqRciaaDIaoVrb-37" target="0PJWaufqRciaaDIaoVrb-46">
          <mxGeometry relative="1" as="geometry" />
        </mxCell>
        <mxCell id="0PJWaufqRciaaDIaoVrb-68" value="是" style="edgeLabel;html=1;align=center;verticalAlign=middle;resizable=0;points=[];" vertex="1" connectable="0" parent="0PJWaufqRciaaDIaoVrb-47">
          <mxGeometry x="-0.4671" y="3" relative="1" as="geometry">
            <mxPoint y="1" as="offset" />
          </mxGeometry>
        </mxCell>
        <mxCell id="0PJWaufqRciaaDIaoVrb-37" value="kthread_create_list空" style="rhombus;whiteSpace=wrap;html=1;fillColor=#97D077;strokeColor=#b85450;rounded=1;glass=0;strokeWidth=1;shadow=0;" vertex="1" parent="WIyWlLk6GJQsqaUBKTNV-1">
          <mxGeometry x="303" y="456" width="173" height="49" as="geometry" />
        </mxCell>
        <mxCell id="0PJWaufqRciaaDIaoVrb-51" value="" style="edgeStyle=orthogonalEdgeStyle;rounded=0;orthogonalLoop=1;jettySize=auto;html=1;" edge="1" parent="WIyWlLk6GJQsqaUBKTNV-1" source="0PJWaufqRciaaDIaoVrb-39" target="0PJWaufqRciaaDIaoVrb-50">
          <mxGeometry relative="1" as="geometry" />
        </mxCell>
        <mxCell id="0PJWaufqRciaaDIaoVrb-39" value="create_kthread" style="whiteSpace=wrap;html=1;fillColor=#97D077;strokeColor=#b85450;rounded=1;glass=0;strokeWidth=1;shadow=0;" vertex="1" parent="WIyWlLk6GJQsqaUBKTNV-1">
          <mxGeometry x="330" y="542" width="120" height="37" as="geometry" />
        </mxCell>
        <mxCell id="0PJWaufqRciaaDIaoVrb-46" value="schedule" style="whiteSpace=wrap;html=1;fillColor=#97D077;strokeColor=#b85450;rounded=1;glass=0;strokeWidth=1;shadow=0;" vertex="1" parent="WIyWlLk6GJQsqaUBKTNV-1">
          <mxGeometry x="483" y="542" width="118" height="37.5" as="geometry" />
        </mxCell>
        <mxCell id="0PJWaufqRciaaDIaoVrb-53" value="" style="edgeStyle=orthogonalEdgeStyle;rounded=0;orthogonalLoop=1;jettySize=auto;html=1;" edge="1" parent="WIyWlLk6GJQsqaUBKTNV-1" source="0PJWaufqRciaaDIaoVrb-50" target="0PJWaufqRciaaDIaoVrb-52">
          <mxGeometry relative="1" as="geometry" />
        </mxCell>
        <mxCell id="0PJWaufqRciaaDIaoVrb-50" value="kernel_thread" style="whiteSpace=wrap;html=1;fillColor=#97D077;strokeColor=#b85450;rounded=1;glass=0;strokeWidth=1;shadow=0;" vertex="1" parent="WIyWlLk6GJQsqaUBKTNV-1">
          <mxGeometry x="330" y="616" width="120" height="37" as="geometry" />
        </mxCell>
        <mxCell id="0PJWaufqRciaaDIaoVrb-52" value="kthread" style="whiteSpace=wrap;html=1;fillColor=#97D077;strokeColor=#b85450;rounded=1;glass=0;strokeWidth=1;shadow=0;" vertex="1" parent="WIyWlLk6GJQsqaUBKTNV-1">
          <mxGeometry x="330" y="693" width="120" height="37" as="geometry" />
        </mxCell>
        <mxCell id="0PJWaufqRciaaDIaoVrb-72" value="" style="edgeStyle=orthogonalEdgeStyle;rounded=0;orthogonalLoop=1;jettySize=auto;html=1;" edge="1" parent="WIyWlLk6GJQsqaUBKTNV-1" source="0PJWaufqRciaaDIaoVrb-54" target="0PJWaufqRciaaDIaoVrb-59">
          <mxGeometry relative="1" as="geometry" />
        </mxCell>
        <mxCell id="0PJWaufqRciaaDIaoVrb-54" value="kthread_create" style="rounded=1;whiteSpace=wrap;html=1;fontSize=12;glass=0;strokeWidth=1;shadow=0;fillColor=#97D077;strokeColor=#b85450;" vertex="1" parent="WIyWlLk6GJQsqaUBKTNV-1">
          <mxGeometry x="622.5" y="341" width="170" height="40" as="geometry" />
        </mxCell>
        <mxCell id="0PJWaufqRciaaDIaoVrb-73" value="" style="edgeStyle=orthogonalEdgeStyle;rounded=0;orthogonalLoop=1;jettySize=auto;html=1;" edge="1" parent="WIyWlLk6GJQsqaUBKTNV-1" source="0PJWaufqRciaaDIaoVrb-59" target="0PJWaufqRciaaDIaoVrb-61">
          <mxGeometry relative="1" as="geometry" />
        </mxCell>
        <mxCell id="0PJWaufqRciaaDIaoVrb-59" value="kthread_create_on_node" style="rounded=1;whiteSpace=wrap;html=1;fontSize=12;glass=0;strokeWidth=1;shadow=0;fillColor=#97D077;strokeColor=#b85450;" vertex="1" parent="WIyWlLk6GJQsqaUBKTNV-1">
          <mxGeometry x="622.5" y="416" width="170" height="40" as="geometry" />
        </mxCell>
        <mxCell id="0PJWaufqRciaaDIaoVrb-74" value="" style="edgeStyle=orthogonalEdgeStyle;rounded=0;orthogonalLoop=1;jettySize=auto;html=1;" edge="1" parent="WIyWlLk6GJQsqaUBKTNV-1" source="0PJWaufqRciaaDIaoVrb-61" target="0PJWaufqRciaaDIaoVrb-63">
          <mxGeometry relative="1" as="geometry" />
        </mxCell>
        <mxCell id="0PJWaufqRciaaDIaoVrb-61" value="__kthread_create_on_node" style="rounded=1;whiteSpace=wrap;html=1;fontSize=12;glass=0;strokeWidth=1;shadow=0;fillColor=#97D077;strokeColor=#b85450;" vertex="1" parent="WIyWlLk6GJQsqaUBKTNV-1">
          <mxGeometry x="622.5" y="493" width="170" height="40" as="geometry" />
        </mxCell>
        <mxCell id="0PJWaufqRciaaDIaoVrb-77" value="" style="edgeStyle=orthogonalEdgeStyle;rounded=0;orthogonalLoop=1;jettySize=auto;html=1;" edge="1" parent="WIyWlLk6GJQsqaUBKTNV-1" source="0PJWaufqRciaaDIaoVrb-63">
          <mxGeometry relative="1" as="geometry">
            <mxPoint x="540" y="581" as="targetPoint" />
          </mxGeometry>
        </mxCell>
        <mxCell id="0PJWaufqRciaaDIaoVrb-63" value="wake_up_process(kthreadd_task)" style="rounded=1;whiteSpace=wrap;html=1;fontSize=12;glass=0;strokeWidth=1;shadow=0;fillColor=#97D077;strokeColor=#b85450;" vertex="1" parent="WIyWlLk6GJQsqaUBKTNV-1">
          <mxGeometry x="595" y="596" width="225" height="40" as="geometry" />
        </mxCell>
        <mxCell id="0PJWaufqRciaaDIaoVrb-79" value="" style="endArrow=classic;html=1;rounded=0;entryX=1;entryY=0.5;entryDx=0;entryDy=0;exitX=0;exitY=0.5;exitDx=0;exitDy=0;" edge="1" parent="WIyWlLk6GJQsqaUBKTNV-1" source="0PJWaufqRciaaDIaoVrb-39" target="0PJWaufqRciaaDIaoVrb-9">
          <mxGeometry width="50" height="50" relative="1" as="geometry">
            <mxPoint x="385" y="502" as="sourcePoint" />
            <mxPoint x="435" y="452" as="targetPoint" />
          </mxGeometry>
        </mxCell>
      </root>
    </mxGraphModel>
  </diagram>
</mxfile>
